<?xml version="1.0" encoding="utf-8" standalone="no"?>
<!DOCTYPE svg PUBLIC "-//W3C//DTD SVG 1.1//EN"
  "http://www.w3.org/Graphics/SVG/1.1/DTD/svg11.dtd">
<svg xmlns:xlink="http://www.w3.org/1999/xlink" width="293.4pt" height="158.91pt" viewBox="0 0 293.4 158.91" xmlns="http://www.w3.org/2000/svg" version="1.1">
 <metadata>
  <rdf:RDF xmlns:dc="http://purl.org/dc/elements/1.1/" xmlns:cc="http://creativecommons.org/ns#" xmlns:rdf="http://www.w3.org/1999/02/22-rdf-syntax-ns#">
   <cc:Work>
    <dc:type rdf:resource="http://purl.org/dc/dcmitype/StillImage"/>
    <dc:date>2025-02-28T17:46:57.904205</dc:date>
    <dc:format>image/svg+xml</dc:format>
    <dc:creator>
     <cc:Agent>
      <dc:title>Matplotlib v3.10.1, https://matplotlib.org/</dc:title>
     </cc:Agent>
    </dc:creator>
   </cc:Work>
  </rdf:RDF>
 </metadata>
 <defs>
  <style type="text/css">*{stroke-linejoin: round; stroke-linecap: butt}</style>
 </defs>
 <g id="figure_1">
  <g id="patch_1">
   <path d="M 0 158.91 
L 293.4 158.91 
L 293.4 0 
L 0 0 
z
" style="fill: #ffffff"/>
  </g>
  <g id="axes_1">
   <g id="legend_1">
    <g id="patch_2">
     <path d="M 26.105625 151.71 
L 267.294375 151.71 
Q 269.694375 151.71 269.694375 149.31 
L 269.694375 9.6 
Q 269.694375 7.2 267.294375 7.2 
L 26.105625 7.2 
Q 23.705625 7.2 23.705625 9.6 
L 23.705625 149.31 
Q 23.705625 151.71 26.105625 151.71 
z
" style="fill: #ffffff; opacity: 0.8; stroke: #cccccc; stroke-linejoin: miter"/>
    </g>
    <g id="patch_3">
     <path d="M 28.505625 21.118125 
L 52.505625 21.118125 
L 52.505625 12.718125 
L 28.505625 12.718125 
z
" style="fill: #003436"/>
    </g>
    <g id="text_1">
     <!-- Important value customer -->
     <g transform="translate(62.105625 21.118125) scale(0.12 -0.12)">
      <defs>
       <path id="DejaVuSans-49" d="M 628 4666 
L 1259 4666 
L 1259 0 
L 628 0 
L 628 4666 
z
" transform="scale(0.015625)"/>
       <path id="DejaVuSans-6d" d="M 3328 2828 
Q 3544 3216 3844 3400 
Q 4144 3584 4550 3584 
Q 5097 3584 5394 3201 
Q 5691 2819 5691 2113 
L 5691 0 
L 5113 0 
L 5113 2094 
Q 5113 2597 4934 2840 
Q 4756 3084 4391 3084 
Q 3944 3084 3684 2787 
Q 3425 2491 3425 1978 
L 3425 0 
L 2847 0 
L 2847 2094 
Q 2847 2600 2669 2842 
Q 2491 3084 2119 3084 
Q 1678 3084 1418 2786 
Q 1159 2488 1159 1978 
L 1159 0 
L 581 0 
L 581 3500 
L 1159 3500 
L 1159 2956 
Q 1356 3278 1631 3431 
Q 1906 3584 2284 3584 
Q 2666 3584 2933 3390 
Q 3200 3197 3328 2828 
z
" transform="scale(0.015625)"/>
       <path id="DejaVuSans-70" d="M 1159 525 
L 1159 -1331 
L 581 -1331 
L 581 3500 
L 1159 3500 
L 1159 2969 
Q 1341 3281 1617 3432 
Q 1894 3584 2278 3584 
Q 2916 3584 3314 3078 
Q 3713 2572 3713 1747 
Q 3713 922 3314 415 
Q 2916 -91 2278 -91 
Q 1894 -91 1617 61 
Q 1341 213 1159 525 
z
M 3116 1747 
Q 3116 2381 2855 2742 
Q 2594 3103 2138 3103 
Q 1681 3103 1420 2742 
Q 1159 2381 1159 1747 
Q 1159 1113 1420 752 
Q 1681 391 2138 391 
Q 2594 391 2855 752 
Q 3116 1113 3116 1747 
z
" transform="scale(0.015625)"/>
       <path id="DejaVuSans-6f" d="M 1959 3097 
Q 1497 3097 1228 2736 
Q 959 2375 959 1747 
Q 959 1119 1226 758 
Q 1494 397 1959 397 
Q 2419 397 2687 759 
Q 2956 1122 2956 1747 
Q 2956 2369 2687 2733 
Q 2419 3097 1959 3097 
z
M 1959 3584 
Q 2709 3584 3137 3096 
Q 3566 2609 3566 1747 
Q 3566 888 3137 398 
Q 2709 -91 1959 -91 
Q 1206 -91 779 398 
Q 353 888 353 1747 
Q 353 2609 779 3096 
Q 1206 3584 1959 3584 
z
" transform="scale(0.015625)"/>
       <path id="DejaVuSans-72" d="M 2631 2963 
Q 2534 3019 2420 3045 
Q 2306 3072 2169 3072 
Q 1681 3072 1420 2755 
Q 1159 2438 1159 1844 
L 1159 0 
L 581 0 
L 581 3500 
L 1159 3500 
L 1159 2956 
Q 1341 3275 1631 3429 
Q 1922 3584 2338 3584 
Q 2397 3584 2469 3576 
Q 2541 3569 2628 3553 
L 2631 2963 
z
" transform="scale(0.015625)"/>
       <path id="DejaVuSans-74" d="M 1172 4494 
L 1172 3500 
L 2356 3500 
L 2356 3053 
L 1172 3053 
L 1172 1153 
Q 1172 725 1289 603 
Q 1406 481 1766 481 
L 2356 481 
L 2356 0 
L 1766 0 
Q 1100 0 847 248 
Q 594 497 594 1153 
L 594 3053 
L 172 3053 
L 172 3500 
L 594 3500 
L 594 4494 
L 1172 4494 
z
" transform="scale(0.015625)"/>
       <path id="DejaVuSans-61" d="M 2194 1759 
Q 1497 1759 1228 1600 
Q 959 1441 959 1056 
Q 959 750 1161 570 
Q 1363 391 1709 391 
Q 2188 391 2477 730 
Q 2766 1069 2766 1631 
L 2766 1759 
L 2194 1759 
z
M 3341 1997 
L 3341 0 
L 2766 0 
L 2766 531 
Q 2569 213 2275 61 
Q 1981 -91 1556 -91 
Q 1019 -91 701 211 
Q 384 513 384 1019 
Q 384 1609 779 1909 
Q 1175 2209 1959 2209 
L 2766 2209 
L 2766 2266 
Q 2766 2663 2505 2880 
Q 2244 3097 1772 3097 
Q 1472 3097 1187 3025 
Q 903 2953 641 2809 
L 641 3341 
Q 956 3463 1253 3523 
Q 1550 3584 1831 3584 
Q 2591 3584 2966 3190 
Q 3341 2797 3341 1997 
z
" transform="scale(0.015625)"/>
       <path id="DejaVuSans-6e" d="M 3513 2113 
L 3513 0 
L 2938 0 
L 2938 2094 
Q 2938 2591 2744 2837 
Q 2550 3084 2163 3084 
Q 1697 3084 1428 2787 
Q 1159 2491 1159 1978 
L 1159 0 
L 581 0 
L 581 3500 
L 1159 3500 
L 1159 2956 
Q 1366 3272 1645 3428 
Q 1925 3584 2291 3584 
Q 2894 3584 3203 3211 
Q 3513 2838 3513 2113 
z
" transform="scale(0.015625)"/>
       <path id="DejaVuSans-20" transform="scale(0.015625)"/>
       <path id="DejaVuSans-76" d="M 191 3500 
L 800 3500 
L 1894 563 
L 2988 3500 
L 3597 3500 
L 2284 0 
L 1503 0 
L 191 3500 
z
" transform="scale(0.015625)"/>
       <path id="DejaVuSans-6c" d="M 603 4863 
L 1178 4863 
L 1178 0 
L 603 0 
L 603 4863 
z
" transform="scale(0.015625)"/>
       <path id="DejaVuSans-75" d="M 544 1381 
L 544 3500 
L 1119 3500 
L 1119 1403 
Q 1119 906 1312 657 
Q 1506 409 1894 409 
Q 2359 409 2629 706 
Q 2900 1003 2900 1516 
L 2900 3500 
L 3475 3500 
L 3475 0 
L 2900 0 
L 2900 538 
Q 2691 219 2414 64 
Q 2138 -91 1772 -91 
Q 1169 -91 856 284 
Q 544 659 544 1381 
z
M 1991 3584 
L 1991 3584 
z
" transform="scale(0.015625)"/>
       <path id="DejaVuSans-65" d="M 3597 1894 
L 3597 1613 
L 953 1613 
Q 991 1019 1311 708 
Q 1631 397 2203 397 
Q 2534 397 2845 478 
Q 3156 559 3463 722 
L 3463 178 
Q 3153 47 2828 -22 
Q 2503 -91 2169 -91 
Q 1331 -91 842 396 
Q 353 884 353 1716 
Q 353 2575 817 3079 
Q 1281 3584 2069 3584 
Q 2775 3584 3186 3129 
Q 3597 2675 3597 1894 
z
M 3022 2063 
Q 3016 2534 2758 2815 
Q 2500 3097 2075 3097 
Q 1594 3097 1305 2825 
Q 1016 2553 972 2059 
L 3022 2063 
z
" transform="scale(0.015625)"/>
       <path id="DejaVuSans-63" d="M 3122 3366 
L 3122 2828 
Q 2878 2963 2633 3030 
Q 2388 3097 2138 3097 
Q 1578 3097 1268 2742 
Q 959 2388 959 1747 
Q 959 1106 1268 751 
Q 1578 397 2138 397 
Q 2388 397 2633 464 
Q 2878 531 3122 666 
L 3122 134 
Q 2881 22 2623 -34 
Q 2366 -91 2075 -91 
Q 1284 -91 818 406 
Q 353 903 353 1747 
Q 353 2603 823 3093 
Q 1294 3584 2113 3584 
Q 2378 3584 2631 3529 
Q 2884 3475 3122 3366 
z
" transform="scale(0.015625)"/>
       <path id="DejaVuSans-73" d="M 2834 3397 
L 2834 2853 
Q 2591 2978 2328 3040 
Q 2066 3103 1784 3103 
Q 1356 3103 1142 2972 
Q 928 2841 928 2578 
Q 928 2378 1081 2264 
Q 1234 2150 1697 2047 
L 1894 2003 
Q 2506 1872 2764 1633 
Q 3022 1394 3022 966 
Q 3022 478 2636 193 
Q 2250 -91 1575 -91 
Q 1294 -91 989 -36 
Q 684 19 347 128 
L 347 722 
Q 666 556 975 473 
Q 1284 391 1588 391 
Q 1994 391 2212 530 
Q 2431 669 2431 922 
Q 2431 1156 2273 1281 
Q 2116 1406 1581 1522 
L 1381 1569 
Q 847 1681 609 1914 
Q 372 2147 372 2553 
Q 372 3047 722 3315 
Q 1072 3584 1716 3584 
Q 2034 3584 2315 3537 
Q 2597 3491 2834 3397 
z
" transform="scale(0.015625)"/>
      </defs>
      <use xlink:href="#DejaVuSans-49"/>
      <use xlink:href="#DejaVuSans-6d" transform="translate(29.492188 0)"/>
      <use xlink:href="#DejaVuSans-70" transform="translate(126.904297 0)"/>
      <use xlink:href="#DejaVuSans-6f" transform="translate(190.380859 0)"/>
      <use xlink:href="#DejaVuSans-72" transform="translate(251.5625 0)"/>
      <use xlink:href="#DejaVuSans-74" transform="translate(292.675781 0)"/>
      <use xlink:href="#DejaVuSans-61" transform="translate(331.884766 0)"/>
      <use xlink:href="#DejaVuSans-6e" transform="translate(393.164062 0)"/>
      <use xlink:href="#DejaVuSans-74" transform="translate(456.542969 0)"/>
      <use xlink:href="#DejaVuSans-20" transform="translate(495.751953 0)"/>
      <use xlink:href="#DejaVuSans-76" transform="translate(527.539062 0)"/>
      <use xlink:href="#DejaVuSans-61" transform="translate(586.71875 0)"/>
      <use xlink:href="#DejaVuSans-6c" transform="translate(647.998047 0)"/>
      <use xlink:href="#DejaVuSans-75" transform="translate(675.78125 0)"/>
      <use xlink:href="#DejaVuSans-65" transform="translate(739.160156 0)"/>
      <use xlink:href="#DejaVuSans-20" transform="translate(800.683594 0)"/>
      <use xlink:href="#DejaVuSans-63" transform="translate(832.470703 0)"/>
      <use xlink:href="#DejaVuSans-75" transform="translate(887.451172 0)"/>
      <use xlink:href="#DejaVuSans-73" transform="translate(950.830078 0)"/>
      <use xlink:href="#DejaVuSans-74" transform="translate(1002.929688 0)"/>
      <use xlink:href="#DejaVuSans-6f" transform="translate(1042.138672 0)"/>
      <use xlink:href="#DejaVuSans-6d" transform="translate(1103.320312 0)"/>
      <use xlink:href="#DejaVuSans-65" transform="translate(1200.732422 0)"/>
      <use xlink:href="#DejaVuSans-72" transform="translate(1262.255859 0)"/>
     </g>
    </g>
    <g id="patch_4">
     <path d="M 28.505625 38.731875 
L 52.505625 38.731875 
L 52.505625 30.331875 
L 28.505625 30.331875 
z
" style="fill: #005843"/>
    </g>
    <g id="text_2">
     <!-- Lost customer -->
     <g transform="translate(62.105625 38.731875) scale(0.12 -0.12)">
      <defs>
       <path id="DejaVuSans-4c" d="M 628 4666 
L 1259 4666 
L 1259 531 
L 3531 531 
L 3531 0 
L 628 0 
L 628 4666 
z
" transform="scale(0.015625)"/>
      </defs>
      <use xlink:href="#DejaVuSans-4c"/>
      <use xlink:href="#DejaVuSans-6f" transform="translate(53.962891 0)"/>
      <use xlink:href="#DejaVuSans-73" transform="translate(115.144531 0)"/>
      <use xlink:href="#DejaVuSans-74" transform="translate(167.244141 0)"/>
      <use xlink:href="#DejaVuSans-20" transform="translate(206.453125 0)"/>
      <use xlink:href="#DejaVuSans-63" transform="translate(238.240234 0)"/>
      <use xlink:href="#DejaVuSans-75" transform="translate(293.220703 0)"/>
      <use xlink:href="#DejaVuSans-73" transform="translate(356.599609 0)"/>
      <use xlink:href="#DejaVuSans-74" transform="translate(408.699219 0)"/>
      <use xlink:href="#DejaVuSans-6f" transform="translate(447.908203 0)"/>
      <use xlink:href="#DejaVuSans-6d" transform="translate(509.089844 0)"/>
      <use xlink:href="#DejaVuSans-65" transform="translate(606.501953 0)"/>
      <use xlink:href="#DejaVuSans-72" transform="translate(668.025391 0)"/>
     </g>
    </g>
    <g id="patch_5">
     <path d="M 28.505625 56.345625 
L 52.505625 56.345625 
L 52.505625 47.945625 
L 28.505625 47.945625 
z
" style="fill: #007252"/>
    </g>
    <g id="text_3">
     <!-- Important retention customer -->
     <g transform="translate(62.105625 56.345625) scale(0.12 -0.12)">
      <defs>
       <path id="DejaVuSans-69" d="M 603 3500 
L 1178 3500 
L 1178 0 
L 603 0 
L 603 3500 
z
M 603 4863 
L 1178 4863 
L 1178 4134 
L 603 4134 
L 603 4863 
z
" transform="scale(0.015625)"/>
      </defs>
      <use xlink:href="#DejaVuSans-49"/>
      <use xlink:href="#DejaVuSans-6d" transform="translate(29.492188 0)"/>
      <use xlink:href="#DejaVuSans-70" transform="translate(126.904297 0)"/>
      <use xlink:href="#DejaVuSans-6f" transform="translate(190.380859 0)"/>
      <use xlink:href="#DejaVuSans-72" transform="translate(251.5625 0)"/>
      <use xlink:href="#DejaVuSans-74" transform="translate(292.675781 0)"/>
      <use xlink:href="#DejaVuSans-61" transform="translate(331.884766 0)"/>
      <use xlink:href="#DejaVuSans-6e" transform="translate(393.164062 0)"/>
      <use xlink:href="#DejaVuSans-74" transform="translate(456.542969 0)"/>
      <use xlink:href="#DejaVuSans-20" transform="translate(495.751953 0)"/>
      <use xlink:href="#DejaVuSans-72" transform="translate(527.539062 0)"/>
      <use xlink:href="#DejaVuSans-65" transform="translate(566.402344 0)"/>
      <use xlink:href="#DejaVuSans-74" transform="translate(627.925781 0)"/>
      <use xlink:href="#DejaVuSans-65" transform="translate(667.134766 0)"/>
      <use xlink:href="#DejaVuSans-6e" transform="translate(728.658203 0)"/>
      <use xlink:href="#DejaVuSans-74" transform="translate(792.037109 0)"/>
      <use xlink:href="#DejaVuSans-69" transform="translate(831.246094 0)"/>
      <use xlink:href="#DejaVuSans-6f" transform="translate(859.029297 0)"/>
      <use xlink:href="#DejaVuSans-6e" transform="translate(920.210938 0)"/>
      <use xlink:href="#DejaVuSans-20" transform="translate(983.589844 0)"/>
      <use xlink:href="#DejaVuSans-63" transform="translate(1015.376953 0)"/>
      <use xlink:href="#DejaVuSans-75" transform="translate(1070.357422 0)"/>
      <use xlink:href="#DejaVuSans-73" transform="translate(1133.736328 0)"/>
      <use xlink:href="#DejaVuSans-74" transform="translate(1185.835938 0)"/>
      <use xlink:href="#DejaVuSans-6f" transform="translate(1225.044922 0)"/>
      <use xlink:href="#DejaVuSans-6d" transform="translate(1286.226562 0)"/>
      <use xlink:href="#DejaVuSans-65" transform="translate(1383.638672 0)"/>
      <use xlink:href="#DejaVuSans-72" transform="translate(1445.162109 0)"/>
     </g>
    </g>
    <g id="patch_6">
     <path d="M 28.505625 73.959375 
L 52.505625 73.959375 
L 52.505625 65.559375 
L 28.505625 65.559375 
z
" style="fill: #008d60"/>
    </g>
    <g id="text_4">
     <!-- General value customer -->
     <g transform="translate(62.105625 73.959375) scale(0.12 -0.12)">
      <defs>
       <path id="DejaVuSans-47" d="M 3809 666 
L 3809 1919 
L 2778 1919 
L 2778 2438 
L 4434 2438 
L 4434 434 
Q 4069 175 3628 42 
Q 3188 -91 2688 -91 
Q 1594 -91 976 548 
Q 359 1188 359 2328 
Q 359 3472 976 4111 
Q 1594 4750 2688 4750 
Q 3144 4750 3555 4637 
Q 3966 4525 4313 4306 
L 4313 3634 
Q 3963 3931 3569 4081 
Q 3175 4231 2741 4231 
Q 1884 4231 1454 3753 
Q 1025 3275 1025 2328 
Q 1025 1384 1454 906 
Q 1884 428 2741 428 
Q 3075 428 3337 486 
Q 3600 544 3809 666 
z
" transform="scale(0.015625)"/>
      </defs>
      <use xlink:href="#DejaVuSans-47"/>
      <use xlink:href="#DejaVuSans-65" transform="translate(77.490234 0)"/>
      <use xlink:href="#DejaVuSans-6e" transform="translate(139.013672 0)"/>
      <use xlink:href="#DejaVuSans-65" transform="translate(202.392578 0)"/>
      <use xlink:href="#DejaVuSans-72" transform="translate(263.916016 0)"/>
      <use xlink:href="#DejaVuSans-61" transform="translate(305.029297 0)"/>
      <use xlink:href="#DejaVuSans-6c" transform="translate(366.308594 0)"/>
      <use xlink:href="#DejaVuSans-20" transform="translate(394.091797 0)"/>
      <use xlink:href="#DejaVuSans-76" transform="translate(425.878906 0)"/>
      <use xlink:href="#DejaVuSans-61" transform="translate(485.058594 0)"/>
      <use xlink:href="#DejaVuSans-6c" transform="translate(546.337891 0)"/>
      <use xlink:href="#DejaVuSans-75" transform="translate(574.121094 0)"/>
      <use xlink:href="#DejaVuSans-65" transform="translate(637.5 0)"/>
      <use xlink:href="#DejaVuSans-20" transform="translate(699.023438 0)"/>
      <use xlink:href="#DejaVuSans-63" transform="translate(730.810547 0)"/>
      <use xlink:href="#DejaVuSans-75" transform="translate(785.791016 0)"/>
      <use xlink:href="#DejaVuSans-73" transform="translate(849.169922 0)"/>
      <use xlink:href="#DejaVuSans-74" transform="translate(901.269531 0)"/>
      <use xlink:href="#DejaVuSans-6f" transform="translate(940.478516 0)"/>
      <use xlink:href="#DejaVuSans-6d" transform="translate(1001.660156 0)"/>
      <use xlink:href="#DejaVuSans-65" transform="translate(1099.072266 0)"/>
      <use xlink:href="#DejaVuSans-72" transform="translate(1160.595703 0)"/>
     </g>
    </g>
    <g id="patch_7">
     <path d="M 28.505625 91.573125 
L 52.505625 91.573125 
L 52.505625 83.173125 
L 28.505625 83.173125 
z
" style="fill: #00a86b"/>
    </g>
    <g id="text_5">
     <!-- General retention customer -->
     <g transform="translate(62.105625 91.573125) scale(0.12 -0.12)">
      <use xlink:href="#DejaVuSans-47"/>
      <use xlink:href="#DejaVuSans-65" transform="translate(77.490234 0)"/>
      <use xlink:href="#DejaVuSans-6e" transform="translate(139.013672 0)"/>
      <use xlink:href="#DejaVuSans-65" transform="translate(202.392578 0)"/>
      <use xlink:href="#DejaVuSans-72" transform="translate(263.916016 0)"/>
      <use xlink:href="#DejaVuSans-61" transform="translate(305.029297 0)"/>
      <use xlink:href="#DejaVuSans-6c" transform="translate(366.308594 0)"/>
      <use xlink:href="#DejaVuSans-20" transform="translate(394.091797 0)"/>
      <use xlink:href="#DejaVuSans-72" transform="translate(425.878906 0)"/>
      <use xlink:href="#DejaVuSans-65" transform="translate(464.742188 0)"/>
      <use xlink:href="#DejaVuSans-74" transform="translate(526.265625 0)"/>
      <use xlink:href="#DejaVuSans-65" transform="translate(565.474609 0)"/>
      <use xlink:href="#DejaVuSans-6e" transform="translate(626.998047 0)"/>
      <use xlink:href="#DejaVuSans-74" transform="translate(690.376953 0)"/>
      <use xlink:href="#DejaVuSans-69" transform="translate(729.585938 0)"/>
      <use xlink:href="#DejaVuSans-6f" transform="translate(757.369141 0)"/>
      <use xlink:href="#DejaVuSans-6e" transform="translate(818.550781 0)"/>
      <use xlink:href="#DejaVuSans-20" transform="translate(881.929688 0)"/>
      <use xlink:href="#DejaVuSans-63" transform="translate(913.716797 0)"/>
      <use xlink:href="#DejaVuSans-75" transform="translate(968.697266 0)"/>
      <use xlink:href="#DejaVuSans-73" transform="translate(1032.076172 0)"/>
      <use xlink:href="#DejaVuSans-74" transform="translate(1084.175781 0)"/>
      <use xlink:href="#DejaVuSans-6f" transform="translate(1123.384766 0)"/>
      <use xlink:href="#DejaVuSans-6d" transform="translate(1184.566406 0)"/>
      <use xlink:href="#DejaVuSans-65" transform="translate(1281.978516 0)"/>
      <use xlink:href="#DejaVuSans-72" transform="translate(1343.501953 0)"/>
     </g>
    </g>
    <g id="patch_8">
     <path d="M 28.505625 109.186875 
L 52.505625 109.186875 
L 52.505625 100.786875 
L 28.505625 100.786875 
z
" style="fill: #66bfa1"/>
    </g>
    <g id="text_6">
     <!-- Important development customer -->
     <g transform="translate(62.105625 109.186875) scale(0.12 -0.12)">
      <defs>
       <path id="DejaVuSans-64" d="M 2906 2969 
L 2906 4863 
L 3481 4863 
L 3481 0 
L 2906 0 
L 2906 525 
Q 2725 213 2448 61 
Q 2172 -91 1784 -91 
Q 1150 -91 751 415 
Q 353 922 353 1747 
Q 353 2572 751 3078 
Q 1150 3584 1784 3584 
Q 2172 3584 2448 3432 
Q 2725 3281 2906 2969 
z
M 947 1747 
Q 947 1113 1208 752 
Q 1469 391 1925 391 
Q 2381 391 2643 752 
Q 2906 1113 2906 1747 
Q 2906 2381 2643 2742 
Q 2381 3103 1925 3103 
Q 1469 3103 1208 2742 
Q 947 2381 947 1747 
z
" transform="scale(0.015625)"/>
      </defs>
      <use xlink:href="#DejaVuSans-49"/>
      <use xlink:href="#DejaVuSans-6d" transform="translate(29.492188 0)"/>
      <use xlink:href="#DejaVuSans-70" transform="translate(126.904297 0)"/>
      <use xlink:href="#DejaVuSans-6f" transform="translate(190.380859 0)"/>
      <use xlink:href="#DejaVuSans-72" transform="translate(251.5625 0)"/>
      <use xlink:href="#DejaVuSans-74" transform="translate(292.675781 0)"/>
      <use xlink:href="#DejaVuSans-61" transform="translate(331.884766 0)"/>
      <use xlink:href="#DejaVuSans-6e" transform="translate(393.164062 0)"/>
      <use xlink:href="#DejaVuSans-74" transform="translate(456.542969 0)"/>
      <use xlink:href="#DejaVuSans-20" transform="translate(495.751953 0)"/>
      <use xlink:href="#DejaVuSans-64" transform="translate(527.539062 0)"/>
      <use xlink:href="#DejaVuSans-65" transform="translate(591.015625 0)"/>
      <use xlink:href="#DejaVuSans-76" transform="translate(652.539062 0)"/>
      <use xlink:href="#DejaVuSans-65" transform="translate(711.71875 0)"/>
      <use xlink:href="#DejaVuSans-6c" transform="translate(773.242188 0)"/>
      <use xlink:href="#DejaVuSans-6f" transform="translate(801.025391 0)"/>
      <use xlink:href="#DejaVuSans-70" transform="translate(862.207031 0)"/>
      <use xlink:href="#DejaVuSans-6d" transform="translate(925.683594 0)"/>
      <use xlink:href="#DejaVuSans-65" transform="translate(1023.095703 0)"/>
      <use xlink:href="#DejaVuSans-6e" transform="translate(1084.619141 0)"/>
      <use xlink:href="#DejaVuSans-74" transform="translate(1147.998047 0)"/>
      <use xlink:href="#DejaVuSans-20" transform="translate(1187.207031 0)"/>
      <use xlink:href="#DejaVuSans-63" transform="translate(1218.994141 0)"/>
      <use xlink:href="#DejaVuSans-75" transform="translate(1273.974609 0)"/>
      <use xlink:href="#DejaVuSans-73" transform="translate(1337.353516 0)"/>
      <use xlink:href="#DejaVuSans-74" transform="translate(1389.453125 0)"/>
      <use xlink:href="#DejaVuSans-6f" transform="translate(1428.662109 0)"/>
      <use xlink:href="#DejaVuSans-6d" transform="translate(1489.84375 0)"/>
      <use xlink:href="#DejaVuSans-65" transform="translate(1587.255859 0)"/>
      <use xlink:href="#DejaVuSans-72" transform="translate(1648.779297 0)"/>
     </g>
    </g>
    <g id="patch_9">
     <path d="M 28.505625 126.800625 
L 52.505625 126.800625 
L 52.505625 118.400625 
L 28.505625 118.400625 
z
" style="fill: #99d1ba"/>
    </g>
    <g id="text_7">
     <!-- Important protection customer -->
     <g transform="translate(62.105625 126.800625) scale(0.12 -0.12)">
      <use xlink:href="#DejaVuSans-49"/>
      <use xlink:href="#DejaVuSans-6d" transform="translate(29.492188 0)"/>
      <use xlink:href="#DejaVuSans-70" transform="translate(126.904297 0)"/>
      <use xlink:href="#DejaVuSans-6f" transform="translate(190.380859 0)"/>
      <use xlink:href="#DejaVuSans-72" transform="translate(251.5625 0)"/>
      <use xlink:href="#DejaVuSans-74" transform="translate(292.675781 0)"/>
      <use xlink:href="#DejaVuSans-61" transform="translate(331.884766 0)"/>
      <use xlink:href="#DejaVuSans-6e" transform="translate(393.164062 0)"/>
      <use xlink:href="#DejaVuSans-74" transform="translate(456.542969 0)"/>
      <use xlink:href="#DejaVuSans-20" transform="translate(495.751953 0)"/>
      <use xlink:href="#DejaVuSans-70" transform="translate(527.539062 0)"/>
      <use xlink:href="#DejaVuSans-72" transform="translate(591.015625 0)"/>
      <use xlink:href="#DejaVuSans-6f" transform="translate(629.878906 0)"/>
      <use xlink:href="#DejaVuSans-74" transform="translate(691.060547 0)"/>
      <use xlink:href="#DejaVuSans-65" transform="translate(730.269531 0)"/>
      <use xlink:href="#DejaVuSans-63" transform="translate(791.792969 0)"/>
      <use xlink:href="#DejaVuSans-74" transform="translate(846.773438 0)"/>
      <use xlink:href="#DejaVuSans-69" transform="translate(885.982422 0)"/>
      <use xlink:href="#DejaVuSans-6f" transform="translate(913.765625 0)"/>
      <use xlink:href="#DejaVuSans-6e" transform="translate(974.947266 0)"/>
      <use xlink:href="#DejaVuSans-20" transform="translate(1038.326172 0)"/>
      <use xlink:href="#DejaVuSans-63" transform="translate(1070.113281 0)"/>
      <use xlink:href="#DejaVuSans-75" transform="translate(1125.09375 0)"/>
      <use xlink:href="#DejaVuSans-73" transform="translate(1188.472656 0)"/>
      <use xlink:href="#DejaVuSans-74" transform="translate(1240.572266 0)"/>
      <use xlink:href="#DejaVuSans-6f" transform="translate(1279.78125 0)"/>
      <use xlink:href="#DejaVuSans-6d" transform="translate(1340.962891 0)"/>
      <use xlink:href="#DejaVuSans-65" transform="translate(1438.375 0)"/>
      <use xlink:href="#DejaVuSans-72" transform="translate(1499.898438 0)"/>
     </g>
    </g>
    <g id="patch_10">
     <path d="M 28.505625 144.414375 
L 52.505625 144.414375 
L 52.505625 136.014375 
L 28.505625 136.014375 
z
" style="fill: #b2d1bd"/>
    </g>
    <g id="text_8">
     <!-- General development customer -->
     <g transform="translate(62.105625 144.414375) scale(0.12 -0.12)">
      <use xlink:href="#DejaVuSans-47"/>
      <use xlink:href="#DejaVuSans-65" transform="translate(77.490234 0)"/>
      <use xlink:href="#DejaVuSans-6e" transform="translate(139.013672 0)"/>
      <use xlink:href="#DejaVuSans-65" transform="translate(202.392578 0)"/>
      <use xlink:href="#DejaVuSans-72" transform="translate(263.916016 0)"/>
      <use xlink:href="#DejaVuSans-61" transform="translate(305.029297 0)"/>
      <use xlink:href="#DejaVuSans-6c" transform="translate(366.308594 0)"/>
      <use xlink:href="#DejaVuSans-20" transform="translate(394.091797 0)"/>
      <use xlink:href="#DejaVuSans-64" transform="translate(425.878906 0)"/>
      <use xlink:href="#DejaVuSans-65" transform="translate(489.355469 0)"/>
      <use xlink:href="#DejaVuSans-76" transform="translate(550.878906 0)"/>
      <use xlink:href="#DejaVuSans-65" transform="translate(610.058594 0)"/>
      <use xlink:href="#DejaVuSans-6c" transform="translate(671.582031 0)"/>
      <use xlink:href="#DejaVuSans-6f" transform="translate(699.365234 0)"/>
      <use xlink:href="#DejaVuSans-70" transform="translate(760.546875 0)"/>
      <use xlink:href="#DejaVuSans-6d" transform="translate(824.023438 0)"/>
      <use xlink:href="#DejaVuSans-65" transform="translate(921.435547 0)"/>
      <use xlink:href="#DejaVuSans-6e" transform="translate(982.958984 0)"/>
      <use xlink:href="#DejaVuSans-74" transform="translate(1046.337891 0)"/>
      <use xlink:href="#DejaVuSans-20" transform="translate(1085.546875 0)"/>
      <use xlink:href="#DejaVuSans-63" transform="translate(1117.333984 0)"/>
      <use xlink:href="#DejaVuSans-75" transform="translate(1172.314453 0)"/>
      <use xlink:href="#DejaVuSans-73" transform="translate(1235.693359 0)"/>
      <use xlink:href="#DejaVuSans-74" transform="translate(1287.792969 0)"/>
      <use xlink:href="#DejaVuSans-6f" transform="translate(1327.001953 0)"/>
      <use xlink:href="#DejaVuSans-6d" transform="translate(1388.183594 0)"/>
      <use xlink:href="#DejaVuSans-65" transform="translate(1485.595703 0)"/>
      <use xlink:href="#DejaVuSans-72" transform="translate(1547.119141 0)"/>
     </g>
    </g>
   </g>
  </g>
 </g>
</svg>
